<?xml version="1.0" standalone="no"?>
<!DOCTYPE svg PUBLIC "-//W3C//DTD SVG 20010904//EN"
 "http://www.w3.org/TR/2001/REC-SVG-20010904/DTD/svg10.dtd">
<svg version="1.0" xmlns="http://www.w3.org/2000/svg"
 width="1063.000000pt" height="591.000000pt" viewBox="0 0 1063.000000 591.000000"
 preserveAspectRatio="xMidYMid meet">
<metadata>
Created by potrace 1.11, written by Peter Selinger 2001-2013
</metadata>
<g transform="translate(0.000000,591.000000) scale(0.100000,-0.100000)"
fill="#000000" stroke="none">
<path d="M0 2955 l0 -2955 5315 0 5315 0 0 2955 0 2955 -5315 0 -5315 0 0
-2955z m5662 2086 l347 354 1 -597 0 -598 2250 0 2250 0 0 -625 0 -625 -2375
0 c-2348 0 -2375 0 -2375 -20 0 -10 5 -43 11 -71 16 -76 75 -135 181 -183 225
-102 244 -114 311 -186 122 -132 170 -271 171 -495 1 -118 -2 -151 -21 -211
-59 -187 -190 -278 -418 -291 -111 -6 -259 14 -301 41 -30 20 -32 61 -4 76 17
9 22 7 30 -15 5 -14 22 -31 37 -37 36 -15 266 -13 341 3 121 25 209 97 254
208 20 50 23 73 23 206 -1 142 -3 155 -33 245 -65 196 -140 284 -300 355 -234
104 -277 136 -309 229 -23 70 -23 186 1 256 24 69 102 150 162 168 57 17 180
15 241 -3 56 -17 103 -49 103 -71 0 -21 -35 -17 -90 11 -94 48 -262 26 -322
-41 -25 -29 -58 -105 -58 -137 l0 -27 1129 0 c919 1 1131 3 1140 14 6 7 10 15
8 17 -1 2 3 -1 9 -8 27 -31 90 -5 82 33 -4 23 -68 41 -79 22 -7 -9 -11 -10
-16 -2 -5 7 -19 14 -33 17 -25 4 -25 4 3 6 25 1 27 4 27 46 l0 45 -42 2 -43 1
43 4 42 4 0 45 0 44 -45 0 c-40 0 -45 -3 -46 -22 l-2 -23 -4 23 c-4 19 -11 22
-48 22 l-44 0 -4 -52 c-2 -29 -4 -7 -5 50 l-2 102 -45 0 c-29 0 -45 -4 -45
-12 0 -10 -2 -10 -8 -1 -4 6 -25 13 -47 16 l-40 4 43 1 43 2 -3 43 c-3 42 -3
42 -45 45 l-43 3 -2 -43 -1 -43 -4 43 -4 42 -45 0 c-41 0 -44 -2 -45 -27 l-2
-28 -4 28 -4 27 -95 0 c-90 0 -94 -1 -95 -22 l-2 -23 -4 23 c-4 22 -6 22 -196
24 l-192 3 194 2 193 3 -6 31 c-3 18 -6 38 -6 45 0 10 -13 14 -40 14 -37 0
-40 -2 -41 -27 0 -25 -1 -25 -8 -8 -5 11 -6 24 -4 28 3 5 -17 8 -43 7 -27 -1
-97 -1 -156 -1 l-107 1 -3 43 c-3 40 -4 42 -39 45 -34 3 -37 1 -42 -30 -3 -18
-6 -53 -6 -78 -3 -80 -11 -56 -11 33 l0 87 -39 0 c-37 0 -40 -2 -49 -37 l-10
-38 -1 38 -1 37 -45 0 -45 0 -1 -42 -2 -43 -6 40 c-6 39 -7 40 -48 43 l-43 3
-2 -38 -1 -38 -4 38 c-4 37 -5 37 -49 37 -41 0 -44 -2 -45 -27 l-2 -28 -4 28
c-4 25 -8 27 -49 27 l-44 0 -1 -52 c-1 -30 -4 -40 -6 -23 -2 17 -6 40 -8 53
l-5 22 -245 0 -244 -1 -4 -42 c-2 -23 -4 -3 -5 44 l-2 86 -40 1 c-22 1 -40 -2
-40 -7 0 -5 -3 -22 -6 -39 -6 -30 -5 -31 37 -35 24 -2 2 -4 -48 -5 -81 -2 -93
-4 -95 -19 -1 -10 -4 11 -7 47 l-6 65 -40 0 c-40 0 -40 0 -43 -42 -3 -39 -1
-43 20 -44 20 -1 21 -2 3 -6 -11 -3 -23 -10 -27 -17 -4 -6 -8 17 -8 52 l0 62
-45 0 -45 0 0 -45 c0 -46 4 -50 48 -48 7 1 11 -2 8 -5 -3 -3 4 -12 15 -20 29
-20 50 -75 43 -110 -5 -26 -3 -30 20 -36 15 -4 32 -17 38 -30 7 -17 22 -26 47
-31 46 -8 81 -41 81 -74 0 -31 -32 -86 -57 -99 -11 -6 -153 -7 -356 -4 -320 5
-339 6 -364 25 -67 53 -63 174 8 225 15 10 17 22 12 60 -4 37 0 60 17 100 23
53 21 94 -3 74 -8 -7 -18 -7 -27 -2 -25 16 -28 12 -37 -37 l-8 -48 -5 45 c-5
43 -6 44 -42 46 -38 2 -38 2 -38 -36 0 -32 4 -39 23 -43 19 -4 19 -4 -5 -6
-23 -1 -27 -6 -31 -38 -2 -21 -4 -1 -5 45 l-2 82 -40 0 c-22 0 -40 -4 -40 -9
0 -5 -3 -23 -6 -40 -6 -31 -6 -31 37 -33 l44 -1 -45 -6 -45 -6 -5 40 c-5 39
-6 40 -45 40 -38 0 -40 -2 -43 -32 -3 -32 -2 -33 40 -35 l43 -1 -42 -4 c-36
-4 -43 -8 -44 -26 l-2 -22 -4 23 c-4 18 -11 22 -46 24 l-42 1 43 4 c42 4 43 5
40 36 -3 34 -21 43 -64 33 -22 -6 -24 -12 -25 -64 -1 -31 -4 -47 -6 -34 -4 19
-11 22 -49 22 -35 0 -44 -4 -45 -17 -1 -17 -2 -17 -6 0 -3 13 -15 17 -49 17
l-44 0 -2 -57 c-1 -37 -3 -45 -5 -23 -8 76 -10 80 -53 80 -24 0 -40 -5 -40
-12 0 -9 -3 -9 -12 0 -7 7 -29 12 -50 12 -29 0 -38 -4 -38 -17 -1 -17 -1 -17
-14 0 -8 10 -27 17 -48 17 -28 0 -37 -5 -43 -22 l-8 -23 -4 23 c-4 18 -11 22
-44 22 -21 0 -39 -3 -40 -7 -3 -30 -11 -68 -15 -72 -2 -2 -4 14 -4 37 l0 42
-40 0 c-25 0 -40 -5 -41 -12 -3 -65 -11 -143 -15 -147 -2 -2 -4 30 -4 72 l0
77 -35 0 c-29 0 -37 -5 -45 -26 -16 -40 -12 -52 18 -57 15 -2 -8 -5 -50 -6
-73 -1 -78 -2 -79 -23 l-2 -23 -4 23 c-4 19 -11 22 -49 22 -43 0 -44 -1 -46
-32 l-1 -33 -4 33 c-4 31 -6 32 -49 32 -41 0 -44 -2 -45 -27 l-2 -28 -4 28
c-4 25 -8 27 -49 27 l-44 0 0 -45 0 -45 193 -2 192 -3 -192 -2 -193 -3 -1 -28
-2 -27 -4 28 -4 27 -145 0 c-121 0 -144 -2 -144 -15 0 -8 -4 -15 -10 -15 -5 0
-10 6 -10 13 0 15 -49 21 -68 9 -7 -5 -15 -25 -19 -45 l-6 -37 38 0 c21 0 36
-3 33 -6 -4 -3 -40 -5 -82 -5 -84 0 -87 -2 -84 -77 1 -23 -2 -45 -5 -49 -4 -3
-7 1 -7 10 0 13 -10 17 -45 17 -29 0 -45 -4 -46 -12 0 -10 -2 -10 -6 0 -5 13
-61 16 -79 4 -7 -4 -12 -43 -13 -94 l-2 -88 33 -2 33 -1 -32 -4 c-31 -4 -33
-7 -33 -42 0 -32 4 -40 23 -45 36 -10 67 -7 68 7 0 9 2 9 6 0 6 -17 93 -17 93
0 0 8 2 9 8 1 4 -7 16 -14 27 -17 11 -2 -593 -5 -1342 -6 l-1363 -1 0 625 0
625 2250 0 2250 0 0 598 1 597 347 -354 347 -353 347 353z m-2700 -1810 c2 -5
53 -4 118 1 81 7 124 6 144 -2 50 -18 17 -29 -124 -41 -74 -7 -138 -15 -142
-18 -12 -11 -48 -254 -58 -395 -37 -510 -51 -738 -56 -866 -2 -80 -6 -195 -9
-256 l-4 -111 101 18 c95 18 142 17 153 -2 16 -25 -89 -44 -346 -60 -193 -11
-229 -7 -229 26 0 12 21 15 115 15 l114 0 17 31 c12 24 18 81 24 243 5 116 18
351 29 521 12 171 26 387 31 480 11 170 26 313 37 341 5 13 -12 14 -124 8
-131 -7 -160 -1 -127 27 9 7 62 15 137 19 67 4 131 12 142 18 24 14 52 15 57
3z m956 -18 c7 -46 -37 -57 -323 -81 l-90 -7 -17 -105 c-9 -58 -21 -182 -28
-274 -9 -138 -9 -171 2 -178 7 -5 82 -7 167 -6 164 3 188 -4 135 -39 -23 -15
-54 -19 -171 -22 l-143 -3 -4 -32 c-9 -56 -37 -526 -43 -715 l-6 -184 84 6
c208 17 417 20 463 7 42 -12 75 -34 64 -45 -2 -3 -144 -8 -316 -11 -246 -6
-312 -10 -316 -21 -7 -18 -29 -16 -42 5 -11 18 -8 88 20 467 9 116 22 350 31
520 17 344 34 616 41 626 2 4 -3 12 -11 19 -22 19 -18 39 9 46 14 3 27 12 30
20 6 17 63 19 68 3 4 -11 205 3 293 21 67 14 100 8 103 -17z m699 12 c56 -17
103 -49 103 -71 0 -21 -35 -17 -90 11 -94 48 -262 26 -322 -41 -25 -29 -58
-105 -58 -136 l0 -28 728 -3 727 -2 -732 -3 c-719 -2 -733 -2 -733 -22 0 -10
5 -43 11 -71 16 -76 75 -135 181 -183 225 -102 244 -114 311 -186 122 -132
170 -271 171 -495 1 -118 -2 -151 -21 -211 -60 -188 -189 -278 -418 -291 -111
-6 -259 14 -301 41 -30 20 -32 61 -4 76 17 9 22 7 30 -15 5 -14 22 -31 37 -37
36 -15 266 -13 341 3 121 25 209 97 254 208 20 50 23 73 23 206 -1 142 -3 155
-33 245 -65 196 -140 284 -300 355 -273 121 -307 155 -328 323 l-7 52 -351 2
-351 3 352 2 351 3 12 52 c20 96 91 187 166 213 52 19 188 19 251 0z m4058
-1034 c17 -3 31 -14 33 -24 3 -14 -5 -17 -53 -17 -101 0 -175 -50 -175 -119 0
-51 45 -102 148 -168 67 -43 87 -62 103 -96 32 -72 22 -157 -27 -224 -35 -46
-79 -57 -167 -42 -82 14 -90 18 -81 43 6 16 14 17 53 11 110 -19 151 1 171 85
9 39 9 54 -5 86 -22 52 -39 70 -117 115 -123 72 -166 165 -119 256 41 81 131
117 236 94z m-1473 -107 l-2 -99 32 60 c50 90 97 135 141 135 41 0 80 -30 75
-58 -5 -27 -33 -25 -46 3 -16 36 -32 31 -72 -23 -36 -49 -63 -106 -107 -227
-31 -83 -42 -240 -24 -325 6 -29 9 -55 7 -58 -3 -2 -16 -2 -30 2 -17 4 -28 17
-36 41 -13 39 -15 297 -4 508 6 118 9 129 28 137 38 15 41 7 38 -96z m-249 65
c53 -14 71 -47 64 -113 -7 -71 -26 -106 -98 -176 -64 -63 -170 -123 -238 -135
-47 -8 -50 -19 -22 -80 23 -52 81 -102 126 -111 59 -11 89 9 130 87 32 62 39
69 66 69 16 0 29 -3 29 -7 0 -25 -77 -137 -108 -158 -84 -55 -187 -41 -263 35
-38 38 -48 57 -63 114 -16 64 -16 73 0 145 39 180 125 296 243 327 58 16 86
17 134 3z m935 -26 c69 -21 135 -79 159 -141 14 -37 18 -75 18 -182 0 -126 -2
-138 -25 -180 -47 -84 -188 -140 -316 -127 l-54 6 0 -187 c0 -183 -23 -690
-36 -808 -9 -75 -19 -94 -49 -94 -14 0 -25 2 -25 4 0 2 6 64 14 138 20 180 25
319 37 888 6 267 13 517 16 556 l5 72 -27 -6 c-25 -4 -44 9 -45 31 0 4 24 18
53 31 46 21 62 24 137 19 47 -2 109 -12 138 -20z m384 -75 c14 -11 15 -22 6
-73 -5 -33 -8 -151 -6 -262 l3 -203 -28 -11 c-15 -7 -30 -10 -32 -7 -11 11
-16 400 -6 473 13 90 28 110 63 83z m-3755 -713 c20 -8 34 -18 30 -21 -3 -3
-15 0 -28 6 -12 7 -40 12 -63 12 -57 -1 -96 -44 -96 -106 0 -57 18 -78 106
-120 116 -56 157 -120 158 -251 1 -64 -3 -87 -20 -115 -41 -70 -127 -101 -227
-82 -53 11 -62 16 -52 31 4 8 12 6 23 -5 24 -25 158 -15 199 14 79 56 83 211
8 324 -20 30 -43 47 -93 69 -86 39 -110 62 -117 114 -17 107 70 172 172 130z
m811 -2 c2 -9 -5 -11 -26 -7 -58 12 -124 -44 -170 -146 -20 -43 -26 -75 -30
-156 -6 -141 19 -228 88 -296 45 -46 50 -48 103 -48 49 0 60 4 88 31 35 35 45
33 28 -4 -24 -54 -133 -69 -205 -28 -85 48 -127 156 -127 321 0 120 20 187 78
263 52 68 159 111 173 70z m622 -76 c6 -40 32 -179 56 -310 24 -131 44 -253
44 -270 0 -63 -18 -10 -40 118 -12 72 -27 136 -33 143 -7 9 -30 12 -71 10
l-61 -3 -20 -143 c-11 -81 -24 -141 -30 -140 -5 2 -8 8 -7 13 2 6 11 66 19
133 13 100 14 125 3 132 -10 6 -9 10 4 17 11 6 21 44 35 124 19 114 32 171 52
237 16 49 35 25 49 -61z m-997 63 c44 -35 52 -78 52 -275 0 -274 -24 -362
-105 -386 -33 -10 -44 -9 -82 10 -72 35 -111 117 -129 266 -20 170 24 333 105
385 43 27 124 27 159 0z m735 13 c-43 -4 -49 -7 -54 -31 -3 -15 -8 -34 -10
-42 -7 -26 -34 -441 -34 -518 l0 -73 53 6 c34 3 45 2 32 -3 -30 -13 -204 -22
-210 -11 -4 5 16 9 44 9 44 0 51 3 55 23 5 23 39 530 40 604 l1 43 65 -2 c56
-1 59 -2 18 -5z"/>
<path d="M6803 2101 c-73 -34 -147 -159 -160 -275 l-6 -48 34 7 c50 10 155 60
199 95 46 37 80 102 80 156 0 45 -6 56 -37 73 -31 16 -62 14 -110 -8z"/>
<path d="M7723 2082 c-14 -9 -40 -224 -50 -404 l-6 -128 74 0 c90 0 135 19
203 85 61 60 85 113 86 186 0 117 -44 199 -132 243 -52 26 -147 36 -175 18z"/>
<path d="M5897 1213 c-17 -51 -47 -202 -47 -234 0 -17 8 -19 59 -19 33 0 62 4
65 8 6 10 -44 274 -54 285 -4 5 -15 -13 -23 -40z"/>
<path d="M4825 1312 c-44 -20 -85 -74 -106 -137 -23 -68 -18 -256 10 -345 30
-97 79 -150 138 -150 48 0 83 30 102 87 6 21 15 117 18 213 6 188 -7 284 -45
322 -27 27 -72 31 -117 10z"/>
</g>
</svg>
