<?xml version="1.0" standalone="no"?>
<!DOCTYPE svg PUBLIC "-//W3C//DTD SVG 20010904//EN"
 "http://www.w3.org/TR/2001/REC-SVG-20010904/DTD/svg10.dtd">
<svg version="1.0" xmlns="http://www.w3.org/2000/svg"
 width="100.000000pt" height="100.000000pt" viewBox="0 0 100.000000 100.000000"
 preserveAspectRatio="xMidYMid meet">
<metadata>
Created by potrace 1.11, written by Peter Selinger 2001-2013
</metadata>
<g transform="translate(0.000000,100.000000) scale(0.100000,-0.100000)"
fill="#000000" stroke="none">
<path d="M0 500 l0 -500 500 0 500 0 0 500 0 500 -500 0 -500 0 0 -500z m500
300 c4 0 19 21 33 48 l27 47 0 -92 0 -93 215 0 215 0 0 -105 0 -105 -109 0
-109 0 -7 29 c-7 35 -38 63 -85 79 -37 12 -172 33 -178 28 -1 -2 6 -20 18 -40
22 -40 14 -51 -32 -44 -20 3 -23 8 -20 42 l4 39 -59 -6 c-108 -11 -173 -51
-173 -106 0 -20 -5 -21 -115 -21 l-115 0 0 105 0 105 215 0 215 0 0 93 0 92
27 -47 c14 -27 29 -48 33 -48z"/>
</g>
</svg>
